# Blender v2.77 (sub 0) OBJ File: 'consolescreen.blend'
# www.blender.org
mtllib consolescreen.mtl
o Cylinder.001
v 0.062609 1.482774 0.191855
v -0.163916 1.482774 0.118252
v -0.163916 1.482774 -0.119929
v 0.062609 1.482774 -0.193533
v 0.202611 1.482774 -0.000839
v -0.000000 1.548996 -0.000839
v 0.215439 1.429198 0.069161
v 0.215439 1.429198 -0.070838
v -0.000000 1.429198 0.225687
v 0.133148 1.429198 0.182425
v -0.215440 1.429198 0.069161
v -0.133149 1.429198 0.182425
v -0.133149 1.429198 -0.184102
v -0.215440 1.429198 -0.070838
v 0.133148 1.428823 -0.184102
v -0.000000 1.429198 -0.227365
v 0.155893 1.492180 0.112424
v -0.059547 1.492180 0.182423
v -0.192694 1.492180 -0.000839
v -0.059547 1.492180 -0.184101
v 0.155893 1.492180 -0.114101
v 0.036800 1.531105 0.112423
v 0.119091 1.531104 -0.000839
v -0.096347 1.531105 0.069160
v -0.096347 1.531105 -0.070838
v 0.036800 1.531105 -0.114101
v 1.143700 1.955985 -0.000839
v 1.143700 3.209882 -0.000839
v 1.121724 1.955985 0.222286
v 1.121724 3.209882 0.222286
v 1.056641 1.955985 0.436836
v 1.056641 3.209882 0.436836
v 0.950952 1.955985 0.634567
v 0.950952 3.209882 0.634567
v 0.808718 1.955985 0.807880
v 0.808718 3.209882 0.807880
v 0.635405 1.955985 0.950114
v 0.635405 3.209882 0.950114
v 0.437675 1.955985 1.055803
v 0.437675 3.209882 1.055803
v 0.223124 1.955985 1.120886
v 0.223124 3.209882 1.120886
v -0.000001 1.955985 1.142862
v -0.000001 3.209882 1.142862
v -0.223126 1.955985 1.120886
v -0.223126 3.209882 1.120886
v -0.437676 1.955985 1.055803
v -0.437676 3.209882 1.055803
v -0.635407 1.955985 0.950113
v -0.635407 3.209882 0.950113
v -0.808719 1.955985 0.807879
v -0.808719 3.209882 0.807879
v -0.950953 1.955985 0.634567
v -0.950953 3.209882 0.634567
v -1.056642 1.955985 0.436836
v -1.056642 3.209882 0.436836
v -1.121725 1.955985 0.222285
v -1.121725 3.209882 0.222285
v -1.143701 1.955985 -0.000840
v -1.143701 3.209882 -0.000840
v 0.059466 1.479905 0.182184
v -0.155689 1.479905 0.112274
v -0.155689 1.479905 -0.113952
v 0.059461 1.479907 -0.183861
v 0.192441 1.479905 -0.000839
v -0.000000 1.542726 -0.000839
v 0.204913 1.427750 0.065551
v 0.204916 1.427752 -0.067220
v 0.000180 1.427750 0.214561
v 0.126463 1.427750 0.173529
v -0.204803 1.427750 0.065894
v -0.126756 1.427750 0.173317
v -0.126756 1.427750 -0.174995
v -0.204803 1.427750 -0.067572
v 0.126462 1.427382 -0.175204
v 0.000171 1.427752 -0.216238
v 0.148082 1.488819 0.106749
v -0.056564 1.488819 0.173242
v -0.183040 1.488819 -0.000839
v -0.056564 1.488819 -0.174919
v 0.148082 1.488821 -0.108423
v 0.034982 1.525729 0.106826
v 0.113206 1.525729 -0.000839
v -0.091586 1.525729 0.065701
v -0.091586 1.525729 -0.067379
v 0.034982 1.525729 -0.108504
v 1.132318 1.955985 -0.001959
v 1.132318 3.209882 -0.001959
v 1.110507 1.955985 0.220055
v 1.110507 3.209882 0.220055
v 1.046075 1.955985 0.432460
v 1.046075 3.209882 0.432460
v 0.941442 1.955985 0.628213
v 0.941442 3.209882 0.628213
v 0.800631 1.955985 0.799793
v 0.800631 3.209882 0.799793
v 0.629052 1.955985 0.940604
v 0.629052 3.209882 0.940604
v 0.433298 1.955985 1.045237
v 0.433298 3.209882 1.045237
v 0.220893 1.955985 1.109669
v 0.220893 3.209882 1.109669
v -0.000001 1.955985 1.131425
v -0.000001 3.209882 1.131425
v -0.220895 1.955985 1.109669
v -0.220895 3.209882 1.109669
v -0.433300 1.955985 1.045236
v -0.433300 3.209882 1.045236
v -0.629053 1.955985 0.940604
v -0.629053 3.209882 0.940604
v -0.800632 1.955985 0.799792
v -0.800632 3.209882 0.799792
v -0.941444 1.955985 0.628213
v -0.941444 3.209882 0.628213
v -1.046076 1.955985 0.432459
v -1.046076 3.209882 0.432459
v -1.110508 1.955985 0.220054
v -1.110508 3.209882 0.220054
v -1.132319 1.955985 -0.001961
v -1.132319 3.209882 -0.001961
vt 0.4726 0.0303
vt 0.4318 0.0356
vt 0.4839 0.0574
vt 0.5717 0.0303
vt 0.5260 0.0356
vt 0.5421 0.0574
vt 0.5717 0.0303
vt 0.5842 0.0356
vt 0.5421 0.0574
vt 0.4726 0.0303
vt 0.5260 0.0356
vt 0.4839 0.0574
vt 0.4114 0.0303
vt 0.4318 0.0356
vt 0.4479 0.0574
vt 0.5000 0.0675
vt 0.4058 0.0002
vt 0.4418 0.0000
vt 0.5000 0.0002
vt 0.5582 0.0002
vt 0.5942 0.0002
vt 0.5942 0.0002
vt 0.5582 0.0002
vt 0.5000 0.0002
vt 0.4418 0.0002
vt 0.4058 0.0002
vt 0.0000 0.2960
vt 0.0000 1.0000
vt 0.0096 1.0000
vt 0.0096 0.2960
vt 0.0381 1.0000
vt 0.0381 0.2960
vt 0.0843 1.0000
vt 0.0843 0.2960
vt 0.1464 1.0000
vt 0.1464 0.2960
vt 0.2222 1.0000
vt 0.2222 0.2960
vt 0.3087 1.0000
vt 0.3087 0.2960
vt 0.4025 1.0000
vt 0.4025 0.2960
vt 0.5000 1.0000
vt 0.5000 0.2960
vt 0.5975 1.0000
vt 0.5975 0.2960
vt 0.6913 1.0000
vt 0.6913 0.2960
vt 0.7778 1.0000
vt 0.7778 0.2960
vt 0.8536 1.0000
vt 0.8536 0.2960
vt 0.9157 1.0000
vt 0.9157 0.2960
vt 0.9619 1.0000
vt 0.9619 0.2960
vt 0.9904 1.0000
vt 0.9904 0.2960
vt 1.0000 1.0000
vt 1.0000 0.2960
vt 0.4839 0.0574
vt 0.4318 0.0356
vt 0.4726 0.0303
vt 0.5421 0.0574
vt 0.5260 0.0356
vt 0.5717 0.0303
vt 0.5421 0.0574
vt 0.5842 0.0356
vt 0.5717 0.0303
vt 0.4839 0.0574
vt 0.5260 0.0356
vt 0.4726 0.0303
vt 0.4479 0.0574
vt 0.4318 0.0356
vt 0.4114 0.0303
vt 0.5000 0.0675
vt 0.4058 0.0002
vt 0.4418 0.0000
vt 0.5000 0.0002
vt 0.5582 0.0002
vt 0.5942 0.0002
vt 0.5942 0.0002
vt 0.5582 0.0002
vt 0.5000 0.0002
vt 0.4418 0.0002
vt 0.4058 0.0002
vt 0.0096 0.2960
vt 0.0096 1.0000
vt 0.0000 1.0000
vt 0.0000 0.2960
vt 0.0381 0.2960
vt 0.0381 1.0000
vt 0.0843 0.2960
vt 0.0843 1.0000
vt 0.1464 0.2960
vt 0.1464 1.0000
vt 0.2222 0.2960
vt 0.2222 1.0000
vt 0.3087 0.2960
vt 0.3087 1.0000
vt 0.4025 0.2960
vt 0.4025 1.0000
vt 0.5000 0.2960
vt 0.5000 1.0000
vt 0.5975 0.2960
vt 0.5975 1.0000
vt 0.6913 0.2960
vt 0.6913 1.0000
vt 0.7778 0.2960
vt 0.7778 1.0000
vt 0.8536 0.2960
vt 0.8536 1.0000
vt 0.9157 0.2960
vt 0.9157 1.0000
vt 0.9619 0.2960
vt 0.9619 1.0000
vt 0.9904 0.2960
vt 0.9904 1.0000
vt 1.0000 0.2960
vt 1.0000 1.0000
vn 0.2804 0.8578 0.4308
vn -0.3231 0.8578 0.3998
vn -0.4800 0.8578 -0.1838
vn 0.0264 0.8578 -0.5133
vn 0.4964 0.8578 -0.1335
vn 0.1477 0.9832 -0.1073
vn 0.3030 0.9272 -0.2202
vn 0.2804 0.8578 -0.4308
vn -0.0564 0.9832 -0.1736
vn -0.1158 0.9272 -0.3563
vn -0.3231 0.8578 -0.3998
vn -0.1826 0.9832 0.0000
vn -0.3746 0.9272 0.0000
vn -0.4800 0.8578 0.1838
vn -0.0564 0.9832 0.1736
vn -0.1158 0.9272 0.3563
vn 0.0264 0.8578 0.5133
vn 0.1477 0.9832 0.1073
vn 0.3030 0.9272 0.2202
vn 0.4964 0.8578 0.1335
vn 0.7860 0.5519 -0.2784
vn 0.7606 0.3388 -0.5538
vn 0.5089 0.5495 -0.6627
vn -0.0219 0.5519 -0.8336
vn -0.2906 0.3397 -0.8945
vn -0.4723 0.5519 -0.6872
vn -0.7996 0.5519 -0.2368
vn -0.9405 0.3397 0.0000
vn -0.7996 0.5519 0.2368
vn -0.4723 0.5519 0.6872
vn -0.2906 0.3397 0.8945
vn -0.0219 0.5519 0.8336
vn 0.5077 0.5519 0.6615
vn 0.7609 0.3397 0.5528
vn 0.7860 0.5519 0.2784
vn 0.3012 0.2321 -0.9249
vn -0.7868 0.2329 -0.5716
vn -0.7868 0.2329 0.5716
vn 0.3005 0.2329 0.9249
vn 0.9725 0.2329 0.0000
vn 0.9952 0.0000 0.0980
vn 0.9569 0.0000 0.2903
vn 0.8819 0.0000 0.4714
vn 0.7730 0.0000 0.6344
vn 0.6344 0.0000 0.7730
vn 0.4714 0.0000 0.8819
vn 0.2903 0.0000 0.9569
vn 0.0980 0.0000 0.9952
vn -0.0980 0.0000 0.9952
vn -0.2903 0.0000 0.9569
vn -0.4714 0.0000 0.8819
vn -0.6344 0.0000 0.7730
vn -0.7730 0.0000 0.6344
vn -0.8819 0.0000 0.4714
vn -0.9569 0.0000 0.2903
vn -0.9952 0.0000 0.0980
vn -0.2803 -0.8579 -0.4306
vn 0.3229 -0.8579 -0.3996
vn 0.4799 -0.8579 0.1836
vn -0.0264 -0.8579 0.5131
vn -0.4962 -0.8579 0.1335
vn -0.1476 -0.9832 0.1073
vn -0.3028 -0.9273 0.2200
vn -0.2803 -0.8579 0.4306
vn 0.0564 -0.9832 0.1735
vn 0.1157 -0.9273 0.3559
vn 0.3229 -0.8579 0.3996
vn 0.1825 -0.9832 0.0000
vn 0.3743 -0.9273 0.0000
vn 0.4799 -0.8579 -0.1836
vn 0.0564 -0.9832 -0.1735
vn 0.1157 -0.9273 -0.3559
vn -0.0264 -0.8579 -0.5131
vn -0.1476 -0.9832 -0.1073
vn -0.3028 -0.9273 -0.2200
vn -0.4961 -0.8579 -0.1335
vn -0.7897 -0.5457 0.2804
vn -0.7618 -0.3348 0.5546
vn -0.5119 -0.5432 0.6655
vn 0.0226 -0.5457 0.8377
vn 0.2911 -0.3357 0.8959
vn 0.4741 -0.5457 0.6910
vn 0.8037 -0.5457 0.2373
vn 0.9420 -0.3357 0.0000
vn 0.8037 -0.5457 -0.2373
vn 0.4741 -0.5457 -0.6910
vn 0.2911 -0.3357 -0.8959
vn 0.0226 -0.5457 -0.8377
vn -0.5107 -0.5457 -0.6644
vn -0.7621 -0.3357 -0.5537
vn -0.7897 -0.5457 -0.2804
vn -0.3012 -0.2318 0.9250
vn 0.7868 -0.2326 0.5717
vn 0.7868 -0.2326 -0.5717
vn -0.3005 -0.2326 -0.9250
vn -0.9726 -0.2326 -0.0000
vn -0.9952 0.0000 -0.0978
vn -0.9569 0.0000 -0.2903
vn -0.8819 0.0000 -0.4714
vn -0.7730 0.0000 -0.6344
vn -0.6344 0.0000 -0.7730
vn -0.4714 0.0000 -0.8819
vn -0.2903 0.0000 -0.9569
vn -0.0980 0.0000 -0.9952
vn 0.0980 0.0000 -0.9952
vn 0.2903 0.0000 -0.9569
vn 0.4714 0.0000 -0.8819
vn 0.6344 0.0000 -0.7730
vn 0.7730 0.0000 -0.6344
vn 0.8819 0.0000 -0.4714
vn 0.9569 0.0000 -0.2903
vn 0.9952 0.0000 -0.0978
vn 0.1103 -0.9909 -0.0768
vn -0.0417 -0.9909 -0.1282
vn -0.1349 -0.9909 0.0000
vn -0.0417 -0.9909 0.1283
vn 0.1091 -0.9909 0.0793
vn 0.0394 -0.9907 -0.1300
vn -0.1102 -0.9907 -0.0801
vn -0.1102 -0.9907 0.0801
vn 0.0421 -0.9907 0.1296
vn 0.1362 -0.9907 -0.0000
vn 0.0000 -1.0000 0.0000
vn 0.0000 1.0000 -0.0000
usemtl Material.001
s off
f 1/1/1 17/2/1 22/3/1
f 2/4/2 18/5/2 24/6/2
f 3/7/3 19/8/3 25/9/3
f 4/10/4 20/11/4 26/12/4
f 5/13/5 21/14/5 23/15/5
f 23/15/6 26/12/6 6/16/6
f 23/15/7 21/14/7 26/12/7
f 21/14/8 4/10/8 26/12/8
f 26/12/9 25/9/9 6/16/9
f 26/12/10 20/11/10 25/9/10
f 20/11/11 3/7/11 25/9/11
f 25/9/12 24/6/12 6/16/12
f 25/9/13 19/8/13 24/6/13
f 19/8/14 2/4/14 24/6/14
f 24/6/15 22/3/15 6/16/15
f 24/6/16 18/5/16 22/3/16
f 18/5/17 1/1/17 22/3/17
f 22/3/18 23/15/18 6/16/18
f 22/3/19 17/2/19 23/15/19
f 17/2/20 5/13/20 23/15/20
f 8/17/21 21/14/21 5/13/21
f 8/17/22 15/18/22 21/14/22
f 15/18/23 4/10/23 21/14/23
f 16/19/24 20/11/24 4/10/24
f 16/19/25 13/20/25 20/11/25
f 13/20/26 3/7/26 20/11/26
f 14/21/27 19/8/27 3/7/27
f 14/21/28 11/22/28 19/8/28
f 11/22/29 2/4/29 19/8/29
f 12/23/30 18/5/30 2/4/30
f 12/23/31 9/24/31 18/5/31
f 9/24/32 1/1/32 18/5/32
f 10/25/33 17/2/33 1/1/33
f 10/25/34 7/26/34 17/2/34
f 7/26/35 5/13/35 17/2/35
f 15/18/36 16/19/36 4/10/36
f 13/20/37 14/21/37 3/7/37
f 11/22/38 12/23/38 2/4/38
f 9/24/39 10/25/39 1/1/39
f 7/26/40 8/17/40 5/13/40
f 27/27/41 28/28/41 30/29/41 29/30/41
f 29/30/42 30/29/42 32/31/42 31/32/42
f 31/32/43 32/31/43 34/33/43 33/34/43
f 33/34/44 34/33/44 36/35/44 35/36/44
f 35/36/45 36/35/45 38/37/45 37/38/45
f 37/38/46 38/37/46 40/39/46 39/40/46
f 39/40/47 40/39/47 42/41/47 41/42/47
f 41/42/48 42/41/48 44/43/48 43/44/48
f 43/44/49 44/43/49 46/45/49 45/46/49
f 45/46/50 46/45/50 48/47/50 47/48/50
f 47/48/51 48/47/51 50/49/51 49/50/51
f 49/50/52 50/49/52 52/51/52 51/52/52
f 51/52/53 52/51/53 54/53/53 53/54/53
f 53/54/54 54/53/54 56/55/54 55/56/54
f 55/56/55 56/55/55 58/57/55 57/58/55
f 57/58/56 58/57/56 60/59/56 59/60/56
f 82/61/57 77/62/57 61/63/57
f 84/64/58 78/65/58 62/66/58
f 85/67/59 79/68/59 63/69/59
f 86/70/60 80/71/60 64/72/60
f 83/73/61 81/74/61 65/75/61
f 66/76/62 86/70/62 83/73/62
f 86/70/63 81/74/63 83/73/63
f 86/70/64 64/72/64 81/74/64
f 66/76/65 85/67/65 86/70/65
f 85/67/66 80/71/66 86/70/66
f 85/67/67 63/69/67 80/71/67
f 66/76/68 84/64/68 85/67/68
f 84/64/69 79/68/69 85/67/69
f 84/64/70 62/66/70 79/68/70
f 66/76/71 82/61/71 84/64/71
f 82/61/72 78/65/72 84/64/72
f 82/61/73 61/63/73 78/65/73
f 66/76/74 83/73/74 82/61/74
f 83/73/75 77/62/75 82/61/75
f 83/73/76 65/75/76 77/62/76
f 65/75/77 81/74/77 68/77/77
f 81/74/78 75/78/78 68/77/78
f 81/74/79 64/72/79 75/78/79
f 64/72/80 80/71/80 76/79/80
f 80/71/81 73/80/81 76/79/81
f 80/71/82 63/69/82 73/80/82
f 63/69/83 79/68/83 74/81/83
f 79/68/84 71/82/84 74/81/84
f 79/68/85 62/66/85 71/82/85
f 62/66/86 78/65/86 72/83/86
f 78/65/87 69/84/87 72/83/87
f 78/65/88 61/63/88 69/84/88
f 61/63/89 77/62/89 70/85/89
f 77/62/90 67/86/90 70/85/90
f 77/62/91 65/75/91 67/86/91
f 64/72/92 76/79/92 75/78/92
f 63/69/93 74/81/93 73/80/93
f 62/66/94 72/83/94 71/82/94
f 61/63/95 70/85/95 69/84/95
f 65/75/96 68/77/96 67/86/96
f 89/87/97 90/88/97 88/89/97 87/90/97
f 91/91/98 92/92/98 90/88/98 89/87/98
f 93/93/99 94/94/99 92/92/99 91/91/99
f 95/95/100 96/96/100 94/94/100 93/93/100
f 97/97/101 98/98/101 96/96/101 95/95/101
f 99/99/102 100/100/102 98/98/102 97/97/102
f 101/101/103 102/102/103 100/100/103 99/99/103
f 103/103/104 104/104/104 102/102/104 101/101/104
f 105/105/105 106/106/105 104/104/105 103/103/105
f 107/107/106 108/108/106 106/106/106 105/105/106
f 109/109/107 110/110/107 108/108/107 107/107/107
f 111/111/108 112/112/108 110/110/108 109/109/108
f 113/113/109 114/114/109 112/112/109 111/111/109
f 115/115/110 116/116/110 114/114/110 113/113/110
f 117/117/111 118/118/111 116/116/111 115/115/111
f 119/119/112 120/120/112 118/118/112 117/117/112
f 15/18/113 8/17/113 68/77/113 75/78/113
f 13/20/114 16/19/114 76/79/114 73/80/114
f 11/22/115 14/21/115 74/81/115 71/82/115
f 9/24/116 12/23/116 72/83/116 69/84/116
f 7/26/117 10/25/117 70/85/117 67/86/117
f 16/19/118 15/18/118 75/78/118 76/79/118
f 14/21/119 13/20/119 73/80/119 74/81/119
f 12/23/120 11/22/120 71/82/120 72/83/120
f 10/25/121 9/24/121 69/84/121 70/85/121
f 8/17/122 7/26/122 67/86/122 68/77/122
f 28/28/105 27/27/105 87/90/105 88/89/105
f 27/27/123 29/30/123 89/87/123 87/90/123
f 30/29/124 28/28/124 88/89/124 90/88/124
f 29/30/123 31/32/123 91/91/123 89/87/123
f 32/31/124 30/29/124 90/88/124 92/92/124
f 31/32/123 33/34/123 93/93/123 91/91/123
f 34/33/124 32/31/124 92/92/124 94/94/124
f 33/34/123 35/36/123 95/95/123 93/93/123
f 36/35/124 34/33/124 94/94/124 96/96/124
f 35/36/123 37/38/123 97/97/123 95/95/123
f 38/37/124 36/35/124 96/96/124 98/98/124
f 37/38/123 39/40/123 99/99/123 97/97/123
f 40/39/124 38/37/124 98/98/124 100/100/124
f 39/40/123 41/42/123 101/101/123 99/99/123
f 42/41/124 40/39/124 100/100/124 102/102/124
f 41/42/123 43/44/123 103/103/123 101/101/123
f 44/43/124 42/41/124 102/102/124 104/104/124
f 43/44/123 45/46/123 105/105/123 103/103/123
f 46/45/124 44/43/124 104/104/124 106/106/124
f 45/46/123 47/48/123 107/107/123 105/105/123
f 48/47/124 46/45/124 106/106/124 108/108/124
f 47/48/123 49/50/123 109/109/123 107/107/123
f 50/49/124 48/47/124 108/108/124 110/110/124
f 49/50/123 51/52/123 111/111/123 109/109/123
f 52/51/124 50/49/124 110/110/124 112/112/124
f 51/52/123 53/54/123 113/113/123 111/111/123
f 54/53/124 52/51/124 112/112/124 114/114/124
f 53/54/123 55/56/123 115/115/123 113/113/123
f 56/55/124 54/53/124 114/114/124 116/116/124
f 55/56/123 57/58/123 117/117/123 115/115/123
f 58/57/124 56/55/124 116/116/124 118/118/124
f 57/58/123 59/60/123 119/119/123 117/117/123
f 60/59/124 58/57/124 118/118/124 120/120/124
f 59/60/104 60/59/104 120/120/104 119/119/104
