# Blender v2.76 (sub 0) OBJ File: 'door.blend'
# www.blender.org
mtllib door.mtl
o Cube
v 0.000000 4.184831 0.000000
v 0.000000 -0.089553 0.000000
v 0.000000 2.067615 0.168689
v 1.241571 3.460203 0.000000
v 0.000000 2.067615 -0.168689
v -1.241571 3.460203 0.000000
v -0.524902 4.184831 0.000000
v 0.524902 4.184831 0.000000
v 0.000000 4.184831 0.084344
v 0.000000 4.184831 -0.084344
v 0.601475 -0.089553 0.000000
v -0.601475 -0.089553 0.000000
v 0.000000 -0.089553 0.084344
v 0.000000 -0.089553 -0.084344
v 0.000000 0.989031 0.168689
v 0.000000 3.126223 0.168689
v 0.610104 2.812421 0.163815
v -0.610104 2.812421 0.163815
v 1.259812 1.733837 0.000000
v 1.135006 3.871029 0.000000
v 1.241571 3.460203 -0.080862
v 1.241571 3.460203 0.080862
v 0.000000 0.989031 -0.168689
v 0.000000 3.126223 -0.168689
v -0.610104 2.812421 -0.163815
v 0.610104 2.812421 -0.163815
v -1.259812 1.733837 0.000000
v -1.135006 3.871029 0.000000
v -1.241571 3.460203 0.080862
v -1.241571 3.460203 -0.080862
v -1.135006 3.871029 -0.081908
v -1.135006 3.871029 0.081908
v -1.259812 1.733837 0.085168
v 0.567503 3.498626 -0.166252
v -0.567503 3.498626 -0.166252
v -0.605789 1.361434 -0.166252
v 1.135006 3.871029 0.081908
v 1.135006 3.871029 -0.081908
v 1.259812 1.733837 -0.085168
v -0.567503 3.498626 0.166252
v 0.567503 3.498626 0.166252
v 0.605789 1.361434 0.166252
v -0.601475 -0.089553 -0.084344
v -0.601475 -0.089553 0.084344
v 0.601475 -0.089553 0.084344
v 0.524902 4.184831 -0.084344
v 0.524902 4.184831 0.084344
v -0.524902 4.184831 0.084344
v -0.524902 4.184831 -0.084344
v 0.601475 -0.089553 -0.084344
v -0.605789 1.361434 0.166252
v 1.259812 1.733837 0.085168
v 0.605789 1.361434 -0.166252
v -1.259812 1.733837 -0.085168
v -1.135982 -0.089553 0.159020
v -1.144019 0.034076 0.168801
v -1.206689 0.030350 0.159115
v -1.074926 4.092304 0.157569
v -1.003482 4.058250 0.166723
v -0.992415 4.184831 0.158597
v -1.206689 0.030350 -0.159115
v -1.144019 0.034076 -0.168801
v -1.135982 -0.089553 -0.159020
v -0.992415 4.184831 -0.158597
v -1.003481 4.058250 -0.166723
v -1.074926 4.092304 -0.157569
v 1.206689 0.030350 0.159115
v 1.144019 0.034076 0.168801
v 1.135982 -0.089553 0.159020
v 0.992415 4.184831 0.158597
v 1.003481 4.058250 0.166723
v 1.074926 4.092304 0.157569
v 1.144019 0.034076 -0.168801
v 1.206689 0.030350 -0.159115
v 1.135982 -0.089553 -0.159020
v 0.992415 4.184831 -0.158597
v 1.074926 4.092304 -0.157569
v 1.003481 4.058250 -0.166723
v -1.178044 3.395034 0.161935
v -1.241571 3.460203 0.152042
v -0.992415 4.184831 0.000000
v -1.074926 4.092304 0.000000
v -1.178044 3.395034 -0.161935
v -1.241571 3.460203 -0.152042
v -1.135982 -0.089553 0.000000
v -1.206689 0.030350 0.000000
v 0.000000 4.184831 -0.158597
v 0.000000 4.055779 -0.168689
v 1.241571 3.460203 -0.152042
v 1.178044 3.395034 -0.161935
v 0.000000 -0.089553 -0.159020
v 0.000000 0.034085 -0.168689
v 0.992415 4.184831 0.000000
v 1.074926 4.092304 0.000000
v 1.178044 3.395034 0.161935
v 1.241571 3.460203 0.152042
v 1.135982 -0.089553 0.000000
v 1.206689 0.030350 0.000000
v 0.000000 4.184831 0.158597
v 0.000000 4.055779 0.168689
v 0.000000 -0.089553 0.159020
v 0.000000 0.034085 0.168689
v -1.135006 3.871029 0.154133
v -1.066271 3.825924 0.164110
v -1.074926 4.092304 -0.083626
v -0.992415 4.184831 -0.084344
v -1.259812 1.733837 -0.160654
v -1.196102 1.697561 -0.169939
v -1.206689 0.030350 0.084399
v -1.135982 -0.089553 0.084344
v 0.532906 4.055911 -0.168231
v 0.524902 4.184831 -0.158597
v 1.196102 1.697561 -0.169939
v 1.259812 1.733837 -0.160654
v -0.601843 0.034056 -0.168481
v -0.601475 -0.089553 -0.159020
v 1.074926 4.092304 0.083626
v 0.992415 4.184831 0.084344
v 1.259812 1.733837 0.160654
v 1.196102 1.697561 0.169939
v 1.206689 0.030350 -0.084399
v 1.135982 -0.089553 -0.084344
v -0.532906 4.055911 0.168231
v -0.524902 4.184831 0.158597
v 0.601843 0.034056 0.168481
v 0.601475 -0.089553 0.159020
v -1.259812 1.733837 0.160654
v -1.196102 1.697561 0.169939
v -1.074926 4.092304 0.083626
v -0.992415 4.184831 0.084344
v -1.135006 3.871029 -0.154133
v -1.066271 3.825924 -0.164110
v -1.206689 0.030350 -0.084399
v -1.135982 -0.089553 -0.084344
v -0.532906 4.055911 -0.168231
v -0.524902 4.184831 -0.158597
v 1.066271 3.825924 -0.164110
v 1.135006 3.871029 -0.154133
v 0.601843 0.034056 -0.168481
v 0.601475 -0.089553 -0.159020
v 1.074926 4.092304 -0.083626
v 0.992415 4.184831 -0.084344
v 1.135006 3.871029 0.154133
v 1.066271 3.825924 0.164110
v 1.206689 0.030350 0.084399
v 1.135982 -0.089553 0.084344
v 0.532906 4.055911 0.168231
v 0.524902 4.184831 0.158597
v -0.601843 0.034056 0.168481
v -0.601475 -0.089553 0.159020
vt 0.708325 1.000000
vt 0.893874 1.000000
vt 0.106126 1.000000
vt 0.291674 1.000000
vt 0.711502 0.969839
vt 0.898311 0.970260
vt 0.923186 0.916033
vt 0.725233 0.839461
vt 0.259571 0.339461
vt 0.025285 0.418098
vt 0.045951 0.028922
vt 0.261138 0.028919
vt 0.926621 0.978353
vt 0.950466 0.926585
vt 0.500000 1.000000
vt 0.500000 0.969808
vt 0.500000 0.752337
vt 0.261284 0.000000
vt 0.049146 0.000000
vt 0.738716 0.000000
vt 0.500000 0.000000
vt 0.274767 0.839461
vt 0.500000 0.504673
vt 0.257859 0.678922
vt 0.049534 0.926585
vt 0.007240 0.830472
vt 0.742140 0.678922
vt 0.950853 0.000000
vt 0.992760 0.830472
vt 0.967547 0.815226
vt 0.974715 0.418099
vt 0.740428 0.339461
vt 0.738862 0.028919
vt 0.954048 0.028922
vt 1.000000 0.426585
vt 0.073378 0.978353
vt 0.500000 0.252337
vt 0.101689 0.970259
vt 0.288498 0.969839
vt 0.076813 0.916033
vt 0.000000 0.426585
vt 0.032453 0.815225
vt 0.021083 0.028052
vt 0.978916 0.028052
vt 0.500000 0.028925
vn 0.000000 1.000000 0.000000
vn -0.005500 -0.005100 1.000000
vn -0.003700 0.000400 -1.000000
vn -0.965100 0.262000 0.000000
vn -0.003100 -0.001300 -1.000000
vn 0.000000 -1.000000 0.000000
vn 0.007400 -0.001200 1.000000
vn 0.968000 0.251100 0.000000
vn -0.007400 -0.001200 -1.000000
vn -0.968000 0.251100 0.000000
vn -0.005500 -0.005100 -1.000000
vn -0.006500 -0.003200 1.000000
vn 0.003700 0.000400 -1.000000
vn -0.006500 -0.003200 -1.000000
vn 0.003700 0.000400 1.000000
vn -0.999900 0.010600 0.000000
vn 0.007400 -0.001200 -1.000000
vn 0.965100 0.262000 0.000000
vn 0.004200 0.003300 -1.000000
vn -0.003700 0.000400 1.000000
vn -0.005100 0.001000 -1.000000
vn 0.005500 -0.005100 1.000000
vn 0.999900 0.010600 0.000000
vn 0.004200 0.003300 1.000000
vn 0.006500 -0.003200 1.000000
vn -0.004200 0.003300 -1.000000
vn -0.007400 -0.001200 1.000000
vn 0.003100 -0.001300 1.000000
vn -0.004200 0.003300 1.000000
vn 0.999500 -0.031200 0.000000
vn 0.005100 0.001000 1.000000
vn -0.999500 -0.031200 0.000000
vn -0.001900 0.001000 1.000000
vn 0.005500 -0.005100 -1.000000
vn -0.003100 -0.001300 1.000000
vn 0.003100 -0.001300 -1.000000
vn 0.001900 0.001000 -1.000000
vn 0.001900 0.001000 1.000000
vn -0.005100 0.001000 1.000000
vn -0.001900 0.001000 -1.000000
vn 0.005100 0.001000 -1.000000
vn 0.006500 -0.003200 -1.000000
vn -0.147100 -0.087500 0.985200
vn -0.093000 0.071900 0.993100
vn -0.147100 -0.087500 -0.985200
vn -0.093000 0.071900 -0.993100
vn 0.147100 -0.087500 0.985200
vn 0.093000 0.071900 0.993100
vn 0.147100 -0.087500 -0.985200
vn 0.093000 0.071900 -0.993100
vn -0.123900 0.020300 0.992100
vn -0.746300 0.665600 -0.000000
vn -0.149800 -0.005500 -0.988700
vn -0.861400 -0.508000 0.000000
vn 0.001400 0.069400 -0.997600
vn 0.149800 -0.005500 -0.988700
vn 0.000300 -0.077600 -0.997000
vn 0.746300 0.665600 0.000000
vn 0.149800 -0.005500 0.988700
vn 0.861400 -0.508000 -0.000000
vn -0.001400 0.069400 0.997600
vn -0.000300 -0.077600 0.997000
vn -0.144100 0.006300 0.989500
vn -0.125900 0.027600 -0.991700
vn -0.000400 0.076300 -0.997100
vn 0.125900 0.027600 -0.991700
vn 0.000200 -0.077100 -0.997000
vn 0.125900 0.027600 0.991700
vn 0.000400 0.076300 0.997100
vn -0.000200 -0.077100 0.997000
vn -0.125900 0.027600 0.991700
vn -0.144100 0.006300 -0.989500
vn 0.000400 0.076300 -0.997100
vn 0.144100 0.006300 -0.989500
vn -0.000200 -0.077100 -0.997000
vn 0.144100 0.006300 0.989500
vn -0.000400 0.076300 0.997100
vn 0.000200 -0.077100 0.997000
vn -0.149800 -0.005500 0.988700
vn -0.123900 0.020300 -0.992100
vn -0.001400 0.069400 -0.997600
vn 0.123900 0.020300 -0.992100
vn -0.000300 -0.077600 -0.997000
vn 0.123900 0.020300 0.992100
vn 0.001400 0.069400 0.997600
vn 0.000300 -0.077600 0.997000
usemtl None
s off
f 49/1/1 136/1/1 64/2/1 106/2/1
f 142/3/1 76/3/1 112/4/1 46/4/1
f 70/3/1 118/3/1 47/4/1 148/4/1
f 123/5/2 59/6/2 104/7/2 40/8/2
f 53/9/3 113/10/3 73/11/3 139/12/3
f 105/13/4 66/13/4 131/14/4 31/14/4
f 7/1/1 49/1/1 106/2/1 81/2/1
f 47/4/1 8/4/1 1/15/1 9/15/1
f 135/5/5 88/16/5 24/17/5 35/8/5
f 11/18/6 50/18/6 122/19/6 97/19/6
f 44/20/6 12/20/6 2/21/6 13/21/6
f 93/3/1 142/3/1 46/4/1 8/4/1
f 41/22/7 16/17/7 3/23/7 17/24/7
f 48/1/1 7/1/1 81/2/1 130/2/1
f 148/4/1 47/4/1 9/15/1 99/15/1
f 38/25/8 20/25/8 4/26/8 21/26/8
f 45/18/6 11/18/6 97/19/6 146/19/6
f 43/20/6 116/20/6 91/21/6 14/21/6
f 35/8/9 24/17/9 5/23/9 25/27/9
f 14/21/6 91/21/6 140/18/6 50/18/6
f 110/28/6 85/28/6 12/20/6 44/20/6
f 32/14/10 28/14/10 6/29/10 29/29/10
f 85/28/6 134/28/6 43/20/6 12/20/6
f 28/14/10 31/14/10 30/29/10 6/29/10
f 129/13/4 82/13/4 28/14/4 32/14/4
f 65/6/11 135/5/11 35/8/11 132/7/11
f 40/8/12 104/7/12 79/30/12 18/27/12
f 108/31/13 36/32/13 115/33/13 62/34/13
f 132/7/14 35/8/14 25/27/14 83/30/14
f 51/32/15 128/31/15 56/34/15 149/33/15
f 103/14/10 32/14/10 29/29/10 80/29/10
f 29/29/16 6/29/16 27/35/16 33/35/16
f 24/17/17 34/22/17 26/24/17 5/23/17
f 46/4/1 112/4/1 87/15/1 10/15/1
f 77/36/18 141/36/18 38/25/18 138/25/18
f 83/30/19 25/27/19 36/32/19 108/31/19
f 120/10/20 42/9/20 125/12/20 68/11/20
f 138/25/8 38/25/8 21/26/8 89/26/8
f 134/28/6 63/28/6 116/20/6 43/20/6
f 30/29/16 84/29/16 107/35/16 54/35/16
f 25/27/21 5/23/21 23/37/21 36/32/21
f 20/25/8 37/25/8 22/26/8 4/26/8
f 118/3/1 93/3/1 8/4/1 47/4/1
f 71/38/22 147/39/22 41/22/22 144/40/22
f 89/26/23 21/26/23 39/41/23 114/41/23
f 18/27/24 79/30/24 128/31/24 51/32/24
f 144/40/25 41/22/25 17/24/25 95/42/25
f 50/18/6 140/18/6 75/19/6 122/19/6
f 26/24/26 90/42/26 113/10/26 53/9/26
f 21/26/23 4/26/23 19/41/23 39/41/23
f 16/17/27 40/8/27 18/27/27 3/23/27
f 147/39/28 100/16/28 16/17/28 41/22/28
f 124/1/1 48/1/1 130/2/1 60/2/1
f 95/42/29 17/24/29 42/9/29 120/10/29
f 114/41/30 39/41/30 121/43/30 74/43/30
f 150/20/6 44/20/6 13/21/6 101/21/6
f 126/18/6 45/18/6 146/19/6 69/19/6
f 22/26/23 96/26/23 119/41/23 52/41/23
f 17/24/31 3/23/31 15/37/31 42/9/31
f 12/20/6 43/20/6 14/21/6 2/21/6
f 27/35/32 54/35/32 133/44/32 86/44/32
f 54/35/32 107/35/32 61/44/32 133/44/32
f 101/21/6 13/21/6 45/18/6 126/18/6
f 127/35/32 33/35/32 109/44/32 57/44/32
f 10/15/1 87/15/1 136/1/1 49/1/1
f 52/41/30 119/41/30 67/43/30 145/43/30
f 15/37/33 51/32/33 149/33/33 102/45/33
f 13/21/6 2/21/6 11/18/6 45/18/6
f 8/4/1 46/4/1 10/15/1 1/15/1
f 94/36/18 117/36/18 37/25/18 20/25/18
f 111/39/34 78/38/34 137/40/34 34/22/34
f 99/15/1 9/15/1 48/1/1 124/1/1
f 117/36/18 72/36/18 143/25/18 37/25/18
f 141/36/18 94/36/18 20/25/18 38/25/18
f 58/13/4 129/13/4 32/14/4 103/14/4
f 100/16/35 123/5/35 40/8/35 16/17/35
f 9/15/1 1/15/1 7/1/1 48/1/1
f 82/13/4 105/13/4 31/14/4 28/14/4
f 1/15/1 10/15/1 49/1/1 7/1/1
f 88/16/36 111/39/36 34/22/36 24/17/36
f 19/41/30 52/41/30 145/43/30 98/43/30
f 2/21/6 14/21/6 50/18/6 11/18/6
f 23/37/37 53/9/37 139/12/37 92/45/37
f 42/9/38 15/37/38 102/45/38 125/12/38
f 3/23/39 18/27/39 51/32/39 15/37/39
f 80/29/16 29/29/16 33/35/16 127/35/16
f 39/41/30 19/41/30 98/43/30 121/43/30
f 4/26/23 22/26/23 52/41/23 19/41/23
f 37/25/8 143/25/8 96/26/8 22/26/8
f 36/32/40 23/37/40 92/45/40 115/33/40
f 5/23/41 26/24/41 53/9/41 23/37/41
f 34/22/42 137/40/42 90/42/42 26/24/42
f 33/35/32 27/35/32 86/44/32 109/44/32
f 6/29/16 30/29/16 54/35/16 27/35/16
f 31/14/10 131/14/10 84/29/10 30/29/10
f 55/28/43 56/34/43 57/44/43
f 58/13/44 59/6/44 60/2/44
f 61/44/45 62/34/45 63/28/45
f 64/2/46 65/6/46 66/13/46
f 67/43/47 68/11/47 69/19/47
f 70/3/48 71/38/48 72/36/48
f 73/11/49 74/43/49 75/19/49
f 76/3/50 77/36/50 78/38/50
f 104/7/51 59/6/51 58/13/51 103/14/51
f 106/2/52 64/2/52 66/13/52 105/13/52
f 108/31/53 62/34/53 61/44/53 107/35/53
f 110/28/54 55/28/54 57/44/54 109/44/54
f 112/4/55 76/3/55 78/38/55 111/39/55
f 114/41/56 74/43/56 73/11/56 113/10/56
f 116/20/57 63/28/57 62/34/57 115/33/57
f 118/3/58 70/3/58 72/36/58 117/36/58
f 120/10/59 68/11/59 67/43/59 119/41/59
f 122/19/60 75/19/60 74/43/60 121/43/60
f 124/1/61 60/2/61 59/6/61 123/5/61
f 126/18/62 69/19/62 68/11/62 125/12/62
f 128/31/63 79/30/63 80/29/63 127/35/63
f 130/2/52 81/2/52 82/13/52 129/13/52
f 132/7/64 83/30/64 84/29/64 131/14/64
f 134/28/54 85/28/54 86/44/54 133/44/54
f 136/1/65 87/15/65 88/16/65 135/5/65
f 138/25/66 89/26/66 90/42/66 137/40/66
f 140/18/67 91/21/67 92/45/67 139/12/67
f 142/3/58 93/3/58 94/36/58 141/36/58
f 144/40/68 95/42/68 96/26/68 143/25/68
f 146/19/60 97/19/60 98/43/60 145/43/60
f 148/4/69 99/15/69 100/16/69 147/39/69
f 150/20/70 101/21/70 102/45/70 149/33/70
f 79/30/71 104/7/71 103/14/71 80/29/71
f 81/2/52 106/2/52 105/13/52 82/13/52
f 83/30/72 108/31/72 107/35/72 84/29/72
f 85/28/54 110/28/54 109/44/54 86/44/54
f 87/15/73 112/4/73 111/39/73 88/16/73
f 89/26/74 114/41/74 113/10/74 90/42/74
f 91/21/75 116/20/75 115/33/75 92/45/75
f 93/3/58 118/3/58 117/36/58 94/36/58
f 95/42/76 120/10/76 119/41/76 96/26/76
f 97/19/60 122/19/60 121/43/60 98/43/60
f 99/15/77 124/1/77 123/5/77 100/16/77
f 101/21/78 126/18/78 125/12/78 102/45/78
f 56/34/79 128/31/79 127/35/79 57/44/79
f 60/2/52 130/2/52 129/13/52 58/13/52
f 65/6/80 132/7/80 131/14/80 66/13/80
f 63/28/54 134/28/54 133/44/54 61/44/54
f 64/2/81 136/1/81 135/5/81 65/6/81
f 77/36/82 138/25/82 137/40/82 78/38/82
f 75/19/83 140/18/83 139/12/83 73/11/83
f 76/3/58 142/3/58 141/36/58 77/36/58
f 71/38/84 144/40/84 143/25/84 72/36/84
f 69/19/60 146/19/60 145/43/60 67/43/60
f 70/3/85 148/4/85 147/39/85 71/38/85
f 55/28/86 150/20/86 149/33/86 56/34/86
f 55/28/6 110/28/6 44/20/6 150/20/6
